<?xml version="1.0" encoding="UTF-8"?>
<svg width="158px" height="125px" viewBox="0 0 158 125" version="1.1" xmlns="http://www.w3.org/2000/svg" xmlns:xlink="http://www.w3.org/1999/xlink">
    <!-- Generator: Sketch 40.1 (33804) - http://www.bohemiancoding.com/sketch -->
    <title>Page 1</title>
    <desc>Created with Sketch.</desc>
    <defs>
        <polygon id="path-1" points="35.581 33.9597451 35.581 0.0294977126 0.867553548 0.0294977126 0.867553548 33.9597451 35.581 33.9597451"></polygon>
    </defs>
    <g id="Welcome" stroke="none" stroke-width="1" fill="none" fill-rule="evenodd">
        <g id="Desktop" transform="translate(-360.000000, -460.000000)">
            <g id="Page-1" transform="translate(360.000000, 460.000000)">
                <path d="M115.688,55.2719 C114.567,67.2779 109.323,79.5549 99.746,89.8269 C92.394,97.7119 83.429,103.3879 73.792,108.1899 C66.587,111.7809 59.68,115.9849 52.727,120.0639 C48.497,122.5449 44.166,124.6869 39.164,124.5369 C31.786,124.3159 26.368,120.7439 22.955,114.2199 C22.071,112.5299 21.23,110.7579 20.756,108.9239 C18.367,99.6889 14.58,91.0069 10.764,82.3019 C6.132,71.7349 3.948,60.5389 3.698,49.0259 C3.533,41.4089 2.697,33.9209 0.923,26.5169 C-0.137,22.0929 -0.426,17.5979 0.817,13.1649 C3.3,4.3149 11.59,-0.9041 21.56,0.1299 C27.267,0.7229 32.938,1.8459 38.654,2.1209 C43.196,2.3389 47.779,1.5469 52.35,1.3499 C72.265,0.4939 88.885,7.5249 101.876,22.6359 C105.486,26.8349 108.552,31.5449 111.521,36.2389 C114.773,41.3799 115.644,47.2509 115.688,55.2719" id="Fill-1" fill="#010202"></path>
                <g id="Group-6" transform="translate(122.000000, 3.544000)">
                    <mask id="mask-2" fill="white">
                        <use xlink:href="#path-1"></use>
                    </mask>
                    <g id="Clip-5"></g>
                    <path d="M35.5729,16.8847 C35.8959,26.5057 27.1019,34.7797 17.1789,33.8947 C14.3429,33.6417 11.4249,32.8407 8.8299,31.6617 C3.7239,29.3437 0.9009,25.2487 0.8679,19.4627 C0.7949,6.5467 12.2689,-3.5743 25.0889,1.2577 C31.0469,3.5027 35.3349,9.7897 35.5729,16.8847" id="Fill-4" fill="#010202" mask="url(#mask-2)"></path>
                </g>
                <path d="M72.4575,60.4963 L45.2865,60.4883 C40.9065,60.4883 37.6045,63.1693 37.6045,66.7263 C37.6045,70.2553 40.9785,73.0193 45.2865,73.0203 L56.3015,73.0203 L56.3015,66.3793 L61.4415,66.3793 L61.4415,78.1433 L45.2305,78.1433 C37.8915,78.1433 32.1425,73.1283 32.1425,66.7263 C32.1425,60.3553 37.8915,55.3643 45.2305,55.3643 L72.4015,55.3723 C76.7815,55.3723 80.0835,52.6913 80.0835,49.1353 C80.0835,45.6053 76.7095,42.8403 72.4015,42.8403 L61.3865,42.8403 L61.3865,49.4813 L56.2465,49.4813 L56.2465,37.7173 L72.4575,37.7173 C79.7965,37.7173 85.5455,42.7323 85.5455,49.1353 C85.5455,55.5063 79.7965,60.4963 72.4575,60.4963" id="Fill-7" fill="#FEFEFE"></path>
            </g>
        </g>
    </g>
</svg>
